<?xml version="1.0" encoding="UTF-8" standalone="no"?>
<svg
   xmlns:dc="http://purl.org/dc/elements/1.1/"
   xmlns:cc="http://creativecommons.org/ns#"
   xmlns:rdf="http://www.w3.org/1999/02/22-rdf-syntax-ns#"
   xmlns:svg="http://www.w3.org/2000/svg"
   xmlns="http://www.w3.org/2000/svg"
   xmlns:sodipodi="http://sodipodi.sourceforge.net/DTD/sodipodi-0.dtd"
   xmlns:inkscape="http://www.inkscape.org/namespaces/inkscape"
   version="1.1"
   x="0"
   y="0"
   width="875.297"
   height="1130"
   viewBox="0 0 875.29699 1130"
   id="svg2"
   inkscape:version="0.91 r13725"
   sodipodi:docname="fastshoplady-j4p4n.svg">
  <metadata
     id="metadata195">
    <rdf:RDF>
      <cc:Work
         rdf:about="">
        <dc:format>image/svg+xml</dc:format>
        <dc:type
           rdf:resource="http://purl.org/dc/dcmitype/StillImage" />
        <dc:title></dc:title>
      </cc:Work>
    </rdf:RDF>
  </metadata>
  <sodipodi:namedview
     pagecolor="#ffffff"
     bordercolor="#666666"
     borderopacity="1"
     objecttolerance="10"
     gridtolerance="10"
     guidetolerance="10"
     inkscape:pageopacity="0"
     inkscape:pageshadow="2"
     inkscape:window-width="1916"
     inkscape:window-height="1035"
     id="namedview193"
     showgrid="false"
     fit-margin-top="0"
     fit-margin-left="0"
     fit-margin-right="0"
     fit-margin-bottom="0"
     inkscape:zoom="0.22"
     inkscape:cx="585.19638"
     inkscape:cy="362.74895"
     inkscape:window-x="4"
     inkscape:window-y="1"
     inkscape:window-maximized="1"
     inkscape:current-layer="g4715" />
  <defs
     id="defs4">
    <clipPath
       id="Clip_1">
      <path
         d="m 0.06,0.31 897.093,0 0,1093.69 -897.093,0 z"
         id="path7"
         inkscape:connector-curvature="0" />
    </clipPath>
    <clipPath
       id="Clip_2">
      <path
         d="m 67.24,806.16 780.452,0 0,280.74 -780.452,0 z"
         id="path10"
         inkscape:connector-curvature="0" />
    </clipPath>
    <clipPath
       id="Clip_1-9">
      <path
         id="path4547"
         d="m 191.762,304.826 c 0,0 -73.568,47.982 -95.154,77.562 -21.592,29.588 -9.597,63.97 -9.597,63.97 l 363.832,4.795 c 0,0 -8.796,-63.162 -63.97,-105.546 -55.175,-42.383 -71.171,-55.975 -71.171,-55.975 l -123.94,15.194 z"
         inkscape:connector-curvature="0" />
    </clipPath>
    <clipPath
       id="Clip_2-7">
      <path
         id="path4550"
         d="m 232.74,7.363 -13.598,53.564 c 0,0 117.555,27.998 185.52,6.398 l -6.399,-59.962 -165.523,0 z"
         inkscape:connector-curvature="0" />
    </clipPath>
  </defs>
  <g
     id="Layer_1"
     transform="translate(-19.060994,36.002943)">
    <text
       xml:space="preserve"
       style="font-style:normal;font-weight:normal;font-size:40px;line-height:125%;font-family:sans-serif;letter-spacing:0px;word-spacing:0px;fill:#eecd97;fill-opacity:1;stroke:none;stroke-width:1px;stroke-linecap:butt;stroke-linejoin:miter;stroke-opacity:1"
       x="90.854645"
       y="707.9068"
       id="text4823"
       sodipodi:linespacing="125%"
       inkscape:transform-center-x="-4.7862431"
       inkscape:transform-center-y="-1.5954144"><tspan
         sodipodi:role="line"
         id="tspan4825"
         x="90.854645"
         y="707.9068">remix by j4p4n</tspan></text>
    <g
       clip-path="url(#Clip_1)"
       id="g13" />
    <g
       id="g4844">
      <g
         id="g4715">
        <path
           d="m 728.1526,-30.831312 c -86.505,0 -117.7206,93.412312 -134.9406,307.960312 -4.146,51.592 -6.918,224.943 -8.611,301.764 l 309.757,0 C 892.665,502.072 889.895,328.721 885.749,277.129 868.529,62.581 817.8266,-30.831312 731.3186,-30.831312 l -3.166,0"
           id="path21"
           style="fill:#e99d8f;fill-opacity:1"
           inkscape:connector-curvature="0"
           sodipodi:nodetypes="cccccsc" />
        <path
           sodipodi:nodetypes="cccccsc"
           inkscape:connector-curvature="0"
           style="fill:#e99d8f;fill-opacity:1"
           id="path4713"
           d="m 162.61259,-29.640483 c -86.504996,0 -117.720596,93.412312 -134.940596,307.960313 -4.146,51.592 -6.918,224.943 -8.611,301.764 l 309.756996,0 c -1.693,-76.821 -4.463,-250.172 -8.609,-301.764 -17.22,-214.548001 -67.9224,-307.960313 -154.4304,-307.960313 l -3.166,0" />
        <path
           d="m 289.7026,-30.831312 c -86.507,0 -117.7216,93.412312 -134.9406,307.960312 -4.146,51.592 -6.917,224.943 -8.613,301.764 l 309.758,0 C 454.213,502.072 451.441,328.721 447.297,277.129 430.077,62.581 379.3766,-30.831312 292.8686,-30.831312 l -3.166,0"
           id="path25"
           style="fill:#edd2b9;fill-opacity:1"
           inkscape:connector-curvature="0"
           sodipodi:nodetypes="cccccsc" />
        <path
           d="m 582.0036,-30.831312 c -86.508,0 -117.7226,93.412312 -134.9416,307.960312 -4.145,51.592 -6.917,224.943 -8.611,301.764 l 309.757,0 C 746.516,502.072 743.742,328.721 739.597,277.129 722.376,62.581 671.6766,-30.831312 585.1686,-30.831312 l -3.165,0"
           id="path29"
           style="fill:#edcfb9;fill-opacity:1"
           inkscape:connector-curvature="0"
           sodipodi:nodetypes="cccccsc" />
        <path
           d="m 702.423,600.808 c 13.903,3.337 8.322,17.009 2.78,15.572 -5.54,-1.436 -4.322,-2.457 -18.041,-5.572 13.063,3.607 23.148,7.986 26.895,9.272 8.25,2.833 3.571,14.161 -3.079,12.56 -4.447,-1.07 -31.112,-11.161 -34.807,-11.245 11.576,3.693 30.886,11.499 36.531,14.2 5.664,2.708 0.616,17.362 -10.713,11.699 -6.05,-3.026 -36.402,-15.704 -36.402,-15.704 0,0 22.734,10.777 27.413,12.87 3.688,1.651 0.492,13.053 -5.171,11.454 -5.212,-1.473 -9.594,-3.985 -23.397,-9.483 -12.335,-4.911 -27.459,-10.323 -26.76,-6.403 0.698,3.922 22.252,13.902 11.932,22.66 -8.321,7.059 -11.628,-5.572 -25.192,-8.381 -16.033,-3.316 -28.308,-11.989 -31.547,-28.472 -3.239,-16.483 10.778,-45.326 42.303,-43.406 18.379,0.275 62.375,17.209 67.255,18.379"
           id="path53"
           inkscape:connector-curvature="0"
           style="fill:#f7ceb9" />
        <path
           d="m 445.596,-23.767954 c -86.506,0 -127.464,20.1946294 -144.685,262.232364 -4.145,58.20241 -6.915,253.76462 -8.611,340.42859 l 309.759,0 C 600.366,492.22903 597.591,296.66682 593.448,238.46441 576.227,-3.5733246 535.27,-23.767954 448.762,-23.767954 l -3.166,0"
           id="path33"
           style="fill:#e9b08f;fill-opacity:1"
           inkscape:connector-curvature="0" />
        <path
           style="fill:#865b37"
           inkscape:connector-curvature="0"
           id="path41"
           d="m 406.587,1021.58 c -20.255,21.33 -56.744,36.97 -70.781,23.64 -14.037,-13.33 -0.307,-50.581 19.948,-71.911 20.255,-21.33 48.056,-27.816 62.093,-14.487 14.038,13.331 8.996,41.428 -11.26,62.758" />
        <path
           style="fill-opacity:0;stroke:#1a1919;stroke-width:7.09399986;stroke-linecap:round;stroke-linejoin:round"
           inkscape:connector-curvature="0"
           id="path43"
           d="m 406.587,1021.58 c -20.255,21.33 -56.744,36.97 -70.781,23.64 -14.037,-13.33 -0.307,-50.581 19.948,-71.911 20.255,-21.33 48.056,-27.816 62.093,-14.487 14.038,13.331 8.996,41.428 -11.26,62.758 z" />
        <path
           d="m 508.859,1021.58 c 20.257,21.33 56.745,36.97 70.783,23.64 14.038,-13.33 0.306,-50.581 -19.948,-71.911 -20.256,-21.33 -48.056,-27.816 -62.093,-14.487 -14.038,13.331 -8.997,41.428 11.258,62.758"
           id="path45"
           inkscape:connector-curvature="0"
           style="fill:#865b37" />
        <path
           d="m 508.859,1021.58 c 20.257,21.33 56.745,36.97 70.783,23.64 14.038,-13.33 0.306,-50.581 -19.948,-71.911 -20.256,-21.33 -48.056,-27.816 -62.093,-14.487 -14.038,13.331 -8.997,41.428 11.258,62.758 z"
           id="path47"
           inkscape:connector-curvature="0"
           style="fill-opacity:0;stroke:#1a1919;stroke-width:7.09399986;stroke-linecap:round;stroke-linejoin:round" />
        <path
           d="m 522.562,592.614 c 0,0 21.073,238.366 66.1,381.495 -45.994,17.438 -72.563,16.774 -123.486,7.315 13.35,-266.164 -3.557,-337.827 -3.557,-337.827 l -8.306,0 c 0,0 -16.908,71.663 -3.556,337.827 -50.924,9.459 -77.492,10.123 -123.487,-7.315 45.027,-143.129 66.099,-381.495 66.099,-381.495 l 130.193,0"
           id="path49"
           inkscape:connector-curvature="0"
           style="fill:#283278" />
        <path
           d="m 702.423,600.808 c 13.903,3.337 8.322,17.009 2.78,15.572 -5.54,-1.436 -4.322,-2.457 -18.041,-5.572 13.063,3.607 23.148,7.986 26.895,9.272 8.25,2.833 3.571,14.161 -3.079,12.56 -4.447,-1.07 -31.112,-11.161 -34.807,-11.245 11.576,3.693 30.886,11.499 36.531,14.2 5.664,2.708 0.616,17.362 -10.713,11.699 -6.05,-3.026 -36.402,-15.704 -36.402,-15.704 0,0 22.734,10.777 27.413,12.87 3.688,1.651 0.492,13.053 -5.171,11.454 -5.212,-1.473 -9.594,-3.985 -23.397,-9.483 -12.335,-4.911 -27.459,-10.323 -26.76,-6.403 0.698,3.922 22.252,13.902 11.932,22.66 -8.321,7.059 -11.628,-5.572 -25.192,-8.381 -16.033,-3.316 -28.308,-11.989 -31.547,-28.472 -3.239,-16.483 10.778,-45.326 42.303,-43.406 18.379,0.275 62.375,17.209 67.255,18.379 z"
           id="path55"
           inkscape:connector-curvature="0"
           style="fill-opacity:0;stroke:#1a1919;stroke-width:7.09399986;stroke-linecap:round;stroke-linejoin:round" />
        <path
           d="m 522.562,592.614 c 0,0 21.073,238.366 66.1,381.495 -45.994,17.438 -72.563,16.774 -123.486,7.315 13.35,-266.164 -3.557,-337.827 -3.557,-337.827 l -8.306,0 c 0,0 -16.908,71.663 -3.556,337.827 -50.924,9.459 -77.492,10.123 -123.487,-7.315 45.027,-143.129 66.099,-381.495 66.099,-381.495 l 130.193,0 z"
           id="path51"
           inkscape:connector-curvature="0"
           style="fill-opacity:0;stroke:#1a1919;stroke-width:7.09399986;stroke-linecap:round;stroke-linejoin:round" />
        <path
           d="m 523.213,365.401 110.006,232.922 -28.232,17 -106.886,-224.533 25.112,-25.389"
           id="path57"
           inkscape:connector-curvature="0"
           style="fill:#f7ceb9" />
        <path
           d="m 523.213,365.401 110.006,232.922 -28.232,17 -106.886,-224.533 25.112,-25.389 z"
           id="path59"
           inkscape:connector-curvature="0"
           style="fill-opacity:0;stroke:#1a1919;stroke-width:7.09399986;stroke-linecap:round;stroke-linejoin:round" />
        <path
           d="m 523.127,364.93 119.499,219.395 c 0,0 5.005,10.844 -17.102,23.149 -22.106,12.305 -38.373,8.55 -38.373,8.55 L 498.935,397.463 523.127,364.93"
           id="path61"
           inkscape:connector-curvature="0"
           style="fill:#fff47a" />
        <path
           d="m 523.127,364.93 119.499,219.395 c 0,0 5.005,10.844 -17.102,23.149 -22.106,12.305 -38.373,8.55 -38.373,8.55 L 498.935,397.463 523.127,364.93 Z"
           id="path63"
           style="fill:#e04142;fill-opacity:1;stroke:#1a1919;stroke-width:7.09399986;stroke-linecap:round;stroke-linejoin:round"
           inkscape:connector-curvature="0" />
        <path
           d="m 392.203,364.782 c -6.118,3.892 -85.644,93.986 -85.644,93.986 l -62.288,-62.842 -24.469,23.913 c 0,0 57.838,76.745 86.757,76.19 29.468,-0.568 84.531,-74.243 84.531,-74.243 l 1.113,-57.004"
           id="path65"
           inkscape:connector-curvature="0"
           style="fill:#f7ceb9" />
        <path
           d="m 392.203,364.782 c -6.118,3.892 -85.644,93.986 -85.644,93.986 l -62.288,-62.842 -24.469,23.913 c 0,0 57.838,76.745 86.757,76.19 29.468,-0.568 84.531,-74.243 84.531,-74.243 l 1.113,-57.004 z"
           id="path67"
           inkscape:connector-curvature="0"
           style="fill-opacity:0;stroke:#1a1919;stroke-width:7.09399986;stroke-linecap:round;stroke-linejoin:round" />
        <path
           d="m 388.866,365.06 c 0,0 -74.936,87.868 -81.752,87.868 -6.814,0 -58.372,-71.939 -58.372,-71.939 l -46.737,44.828 c 0,0 67.57,80.501 109.281,74.661 40.939,-5.731 95.654,-98.992 95.654,-98.992 L 388.866,365.06"
           id="path69"
           style="fill:#e04142;fill-opacity:1"
           inkscape:connector-curvature="0" />
        <path
           d="m 388.866,365.06 c 0,0 -74.936,87.868 -81.752,87.868 -6.814,0 -58.372,-71.939 -58.372,-71.939 l -46.737,44.828 c 0,0 67.57,80.501 109.281,74.661 40.939,-5.731 95.654,-98.992 95.654,-98.992 L 388.866,365.06 Z"
           id="path71"
           inkscape:connector-curvature="0"
           style="fill-opacity:0;stroke:#1a1919;stroke-width:7.09399986;stroke-linecap:round;stroke-linejoin:round" />
        <path
           d="m 145.558,410.941 c -13.904,-3.337 -8.322,-17.008 -2.781,-15.572 5.541,1.436 4.323,2.458 18.041,5.572 -13.062,-3.608 -23.146,-7.985 -26.894,-9.272 -8.25,-2.832 -3.57,-14.16 3.078,-12.559 4.447,1.07 31.113,11.16 34.808,11.244 -11.577,-3.692 -30.885,-11.499 -36.532,-14.2 -5.664,-2.709 -0.615,-17.363 10.712,-11.698 6.051,3.025 36.404,15.703 36.404,15.703 0,0 -22.734,-10.778 -27.414,-12.87 -3.687,-1.65 -0.493,-13.053 5.172,-11.453 5.211,1.474 9.592,3.985 23.396,9.483 12.337,4.91 27.46,10.324 26.762,6.403 -0.7,-3.922 -22.253,-13.903 -11.932,-22.66 8.319,-7.06 11.628,5.572 25.191,8.381 16.034,3.316 28.309,11.989 31.547,28.472 3.238,16.482 -10.778,45.325 -42.303,43.405 -18.379,-0.274 -62.375,-17.208 -67.255,-18.379"
           id="path73"
           inkscape:connector-curvature="0"
           style="fill:#f7ceb9" />
        <path
           d="m 145.558,410.941 c -13.904,-3.337 -8.322,-17.008 -2.781,-15.572 5.541,1.436 4.323,2.458 18.041,5.572 -13.062,-3.608 -23.146,-7.985 -26.894,-9.272 -8.25,-2.832 -3.57,-14.16 3.078,-12.559 4.447,1.07 31.113,11.16 34.808,11.244 -11.577,-3.692 -30.885,-11.499 -36.532,-14.2 -5.664,-2.709 -0.615,-17.363 10.712,-11.698 6.051,3.025 36.404,15.703 36.404,15.703 0,0 -22.734,-10.778 -27.414,-12.87 -3.687,-1.65 -0.493,-13.053 5.172,-11.453 5.211,1.474 9.592,3.985 23.396,9.483 12.337,4.91 27.46,10.324 26.762,6.403 -0.7,-3.922 -22.253,-13.903 -11.932,-22.66 8.319,-7.06 11.628,5.572 25.191,8.381 16.034,3.316 28.309,11.989 31.547,28.472 3.238,16.482 -10.778,45.325 -42.303,43.405 -18.379,-0.274 -62.375,-17.208 -67.255,-18.379 z m 61.755,-7.573 c -3.694,-1.848 -24.134,-4.926 -32.384,-0.986"
           id="path75"
           inkscape:connector-curvature="0"
           style="fill-opacity:0;stroke:#1a1919;stroke-width:7.09399986;stroke-linecap:round;stroke-linejoin:round" />
        <path
           d="m 457.475,335.945 13.768,0 1.243,17.476 33.712,11.553 0,27.982 -97.467,0 0,-27.982 33.713,-11.553 1.244,-17.476 13.787,0"
           id="path77"
           inkscape:connector-curvature="0"
           style="fill:#f7d0ba" />
        <path
           d="m 457.475,335.945 13.768,0 1.243,17.476 33.712,11.553 0,27.982 -97.467,0 0,-27.982 33.713,-11.553 1.244,-17.476 13.787,0 z"
           id="path79"
           inkscape:connector-curvature="0"
           style="fill-opacity:0;stroke:#1a1919;stroke-width:7.09399986;stroke-linecap:round;stroke-linejoin:round" />
        <path
           d="m 416.183,359.982 c 0,19.25 18.323,30.738 41.287,30.738 22.964,0 41.872,-11.488 41.872,-30.738 l 23.166,7.5 13.067,234.57 c 0,0 -26.996,22.947 -78.194,22.947 -51.198,0 -78.026,-22.947 -78.026,-22.947 l 13.664,-233.278 23.164,-8.792"
           id="path81"
           inkscape:connector-curvature="0"
           style="fill:#fff47a" />
        <path
           d="m 416.183,359.982 c 0,19.25 18.323,30.738 41.287,30.738 22.964,0 41.872,-11.488 41.872,-30.738 l 23.166,7.5 13.067,234.57 c 0,0 -26.996,22.947 -78.194,22.947 -51.198,0 -78.026,-22.947 -78.026,-22.947 l 13.664,-233.278 23.164,-8.792 z"
           id="path83"
           style="fill:#e04142;fill-opacity:1;stroke:#1a1919;stroke-width:7.09399986;stroke-linecap:round;stroke-linejoin:round"
           inkscape:connector-curvature="0" />
        <path
           d="m 575.73,739.239 c -0.115,-0.575 -2.982,-15.184 -7.302,-37.438 -13.544,-69.773 -41.358,-276.558 -43.231,-299.262 -2.482,-30.089 0.679,-39.949 0.679,-39.949 l -25.781,-6.261 -1.34,37.068 c 0,0 -2.085,12.749 -41.317,12.749 -39.232,0 -41.261,-12.749 -41.261,-12.749 l -1.339,-37.068 -25.78,6.261 c 0,0 3.161,9.86 0.677,39.949 -1.875,22.704 -29.687,229.489 -43.231,299.262 -4.32,22.254 -7.19,36.863 -7.302,37.438 -0.002,0.01 -0.005,0.029 -0.005,0.029 l 0.101,0 c 30.725,8.866 72.345,14.313 118.169,14.313 45.823,0 87.441,-5.447 118.169,-14.313 l 0.099,0 c 0,0 -0.004,-0.019 -0.005,-0.029"
           id="path85"
           style="fill:#e08741;fill-opacity:1"
           inkscape:connector-curvature="0" />
        <path
           d="m 575.73,739.239 c -0.115,-0.575 -2.982,-15.184 -7.302,-37.438 -13.544,-69.773 -41.358,-276.558 -43.231,-299.262 -2.482,-30.089 0.679,-39.949 0.679,-39.949 l -25.781,-6.261 -1.34,37.068 c 0,0 -2.085,12.749 -41.317,12.749 -39.232,0 -41.261,-12.749 -41.261,-12.749 l -1.339,-37.068 -25.78,6.261 c 0,0 3.161,9.86 0.677,39.949 -1.875,22.704 -29.687,229.489 -43.231,299.262 -4.32,22.254 -7.19,36.863 -7.302,37.438 -0.002,0.01 -0.005,0.029 -0.005,0.029 l 0.101,0 c 30.725,8.866 72.345,14.313 118.169,14.313 45.823,0 87.441,-5.447 118.169,-14.313 l 0.099,0 c 0,0 -0.004,-0.019 -0.005,-0.029 z"
           id="path87"
           inkscape:connector-curvature="0"
           style="fill-opacity:0;stroke:#1a1919;stroke-width:7.09399986;stroke-linecap:round;stroke-linejoin:round" />
        <g
           clip-path="url(#Clip_2)"
           id="g89">
          <path
             d="m 67.24,816.166 780.452,0 0,270.734 -780.452,0 z"
             id="path91"
             inkscape:connector-curvature="0"
             style="fill:#ffefcb" />
          <path
             d="m 67.24,851.745 780.452,0 0,199.585 -780.452,0 z"
             id="path93"
             style="fill:#da2b00;fill-opacity:1"
             inkscape:connector-curvature="0" />
        </g>
        <path
           d="m 134.938,869.261 645.057,0 0,164.549 -645.057,0 z"
           id="path95"
           style="fill:#f3ec4f;fill-opacity:1"
           inkscape:connector-curvature="0" />
        <path
           d="m 123.233,887.673 668.466,0 0,127.727 -668.466,0 z"
           id="path97"
           style="fill:#da8b00;fill-opacity:1"
           inkscape:connector-curvature="0" />
        <path
           d="m 134.938,901.794 645.057,0 0,99.486 -645.057,0 z"
           id="path99"
           style="fill:#f3ec4f;fill-opacity:1"
           inkscape:connector-curvature="0" />
        <path
           d="m 67.24,809.707 780.452,0 0,280.743 -780.452,0 z"
           id="path103"
           inkscape:connector-curvature="0"
           style="fill-opacity:0;stroke:#1a1919;stroke-width:7.09399986;stroke-linecap:round;stroke-linejoin:round" />
        <path
           d="m 883.527,777.091 -852.122,0 47.293,-224.614 757.535,0 47.294,224.614"
           id="path105"
           inkscape:connector-curvature="0"
           style="fill:#ffefcb" />
        <path
           d="m 883.527,777.091 -852.122,0 47.293,-224.614 757.535,0 47.294,224.614 z"
           id="path107"
           inkscape:connector-curvature="0"
           style="fill-opacity:0;stroke:#1a1919;stroke-width:7.09399986;stroke-linecap:round;stroke-linejoin:round" />
        <path
           d="m 31.405,777.091 852.122,0 0,39.075 -852.122,0 z"
           id="path109"
           inkscape:connector-curvature="0"
           style="fill:#eecd97" />
        <path
           d="m 31.405,777.091 852.122,0 0,39.075 -852.122,0 z"
           id="path111"
           inkscape:connector-curvature="0"
           style="fill-opacity:0;stroke:#1a1919;stroke-width:7.09399986;stroke-linecap:round;stroke-linejoin:round" />
        <path
           d="m 605.639,279.706 c 25.157,43.575 -11.293,88.219 21.129,125.882 -35.715,3.348 -90.583,-44.789 -98.453,-81.239 -5.204,-24.1 -5.011,-48.655 16.34,-60.983 21.355,-12.327 48.656,-5.012 60.984,16.34"
           id="path151"
           inkscape:connector-curvature="0"
           style="fill:#865b37" />
        <path
           d="m 605.639,279.706 c 25.157,43.575 -11.293,88.219 21.129,125.882 -35.715,3.348 -90.583,-44.789 -98.453,-81.239 -5.204,-24.1 -5.011,-48.655 16.34,-60.983 21.355,-12.327 48.656,-5.012 60.984,16.34 z"
           id="path153"
           inkscape:connector-curvature="0"
           style="fill-opacity:0;stroke:#1a1919;stroke-width:7.09399986;stroke-linecap:round;stroke-linejoin:round" />
        <path
           d="m 585.957,211.591 c 0,69.81 -64.237,120.252 -129.463,120.252 -65.227,0 -129.463,-50.442 -129.463,-120.252 0,-69.808 57.963,-126.401 129.463,-126.401 71.5,0 129.463,56.593 129.463,126.401"
           id="path155"
           inkscape:connector-curvature="0"
           style="fill:#865b37" />
        <path
           d="m 585.957,211.591 c 0,69.81 -64.237,120.252 -129.463,120.252 -65.227,0 -129.463,-50.442 -129.463,-120.252 0,-69.808 57.963,-126.401 129.463,-126.401 71.5,0 129.463,56.593 129.463,126.401 z"
           id="path157"
           inkscape:connector-curvature="0"
           style="fill-opacity:0;stroke:#1a1919;stroke-width:7.09399986;stroke-linecap:round;stroke-linejoin:round" />
        <path
           d="m 553.136,246.936 c 7.446,-6.132 21.606,-14.015 30.657,0.584 9.051,14.599 -17.081,48.467 -32.993,31.532 -12.18,-12.96 2.336,-32.116 2.336,-32.116"
           id="path159"
           inkscape:connector-curvature="0"
           style="fill:#f7ceb9" />
        <path
           d="m 553.136,246.936 c 7.446,-6.132 21.606,-14.015 30.657,0.584 9.051,14.599 -17.081,48.467 -32.993,31.532 -12.18,-12.96 2.336,-32.116 2.336,-32.116 z"
           id="path161"
           inkscape:connector-curvature="0"
           style="fill-opacity:0;stroke:#1a1919;stroke-width:7.09399986;stroke-linecap:round;stroke-linejoin:round" />
        <path
           d="m 359.853,246.936 c -7.446,-6.132 -21.607,-14.015 -30.659,0.584 -9.049,14.599 17.081,48.467 32.994,31.532 12.178,-12.96 -2.335,-32.116 -2.335,-32.116"
           id="path163"
           inkscape:connector-curvature="0"
           style="fill:#f7ceb9" />
        <path
           d="m 359.853,246.936 c -7.446,-6.132 -21.607,-14.015 -30.659,0.584 -9.049,14.599 17.081,48.467 32.994,31.532 12.178,-12.96 -2.335,-32.116 -2.335,-32.116 z"
           id="path165"
           inkscape:connector-curvature="0"
           style="fill-opacity:0;stroke:#1a1919;stroke-width:7.09399986;stroke-linecap:round;stroke-linejoin:round" />
        <path
           d="m 563.702,226.055 c 0,64.816 -46.95,117.359 -107.208,117.359 -60.258,0 -107.209,-52.543 -107.209,-117.359 0,-64.814 47.999,-117.358 107.209,-117.358 59.208,0 107.208,52.544 107.208,117.358"
           id="path167"
           inkscape:connector-curvature="0"
           style="fill:#f7ceb9" />
        <path
           d="m 563.702,226.055 c 0,64.816 -46.95,117.359 -107.208,117.359 -60.258,0 -107.209,-52.543 -107.209,-117.359 0,-64.814 47.999,-117.358 107.209,-117.358 59.208,0 107.208,52.544 107.208,117.358 z m -107.208,42.918 c 0,0 -1.095,5.913 -4.599,11.422 l 4.793,1.662"
           id="path169"
           inkscape:connector-curvature="0"
           style="fill-opacity:0;stroke:#1a1919;stroke-width:7.09399986;stroke-linecap:round;stroke-linejoin:round" />
        <path
           d="m 533.138,291.105 c 0,10.316 -8.359,18.682 -18.682,18.682 -10.309,0 -18.682,-8.366 -18.682,-18.682 0,-10.316 8.373,-18.682 18.682,-18.682 10.323,0 18.682,8.366 18.682,18.682"
           id="path171"
           inkscape:connector-curvature="0"
           style="fill:#f1af9c" />
        <path
           d="m 379.849,291.105 c 0,10.316 8.358,18.682 18.681,18.682 10.309,0 18.682,-8.366 18.682,-18.682 0,-10.316 -8.373,-18.682 -18.682,-18.682 -10.323,0 -18.681,8.366 -18.681,18.682"
           id="path173"
           inkscape:connector-curvature="0"
           style="fill:#f1af9c" />
        <path
           d="m 426.97,253.101 c 0,9.33 -6.346,16.902 -14.189,16.902 -7.826,0 -14.185,-7.572 -14.185,-16.902 0,-9.338 6.359,-16.903 14.185,-16.903 7.843,0 14.189,7.565 14.189,16.903"
           id="path175"
           inkscape:connector-curvature="0"
           style="fill:#1a1919" />
        <path
           d="m 514.392,253.101 c 0,9.33 -6.345,16.902 -14.187,16.902 -7.827,0 -14.186,-7.572 -14.186,-16.902 0,-9.338 6.359,-16.903 14.186,-16.903 7.842,0 14.187,7.565 14.187,16.903"
           id="path177"
           inkscape:connector-curvature="0"
           style="fill:#1a1919" />
        <path
           d="m 517.557,225.069 c 0,0 -6.451,-7.484 -14.518,-7.484 -8.068,0 -11.005,4.614 -11.005,4.614 0,0 5.493,-2.937 11.076,-2.937 5.584,0 14.447,5.807 14.447,5.807"
           id="path179"
           inkscape:connector-curvature="0"
           style="fill:#1a1919" />
        <path
           d="m 517.557,225.069 c 0,0 -6.451,-7.484 -14.518,-7.484 -8.068,0 -11.005,4.614 -11.005,4.614 0,0 5.493,-2.937 11.076,-2.937 5.584,0 14.447,5.807 14.447,5.807 z"
           id="path181"
           inkscape:connector-curvature="0"
           style="fill-opacity:0;stroke:#1a1919;stroke-width:2.36500001;stroke-linecap:round;stroke-linejoin:round" />
        <path
           d="m 479.131,299.17 c 0,12.503 -11.346,22.638 -22.637,22.638 -11.293,0 -22.639,-10.135 -22.639,-22.638 l 45.276,0"
           id="path183"
           inkscape:connector-curvature="0"
           style="fill:#e0564c" />
        <path
           d="m 479.131,299.17 c 0,12.503 -11.346,22.638 -22.637,22.638 -11.293,0 -22.639,-10.135 -22.639,-22.638 l 45.276,0 z"
           id="path185"
           inkscape:connector-curvature="0"
           style="fill-opacity:0;stroke:#1a1919;stroke-width:7.09399986;stroke-linecap:round;stroke-linejoin:round" />
        <path
           d="m 553.43,162.994 c 21.897,40.293 21.897,82.773 -5.696,154.16 -3.262,-3.672 -7.288,-78.796 -7.822,-89.051 -0.039,-0.751 -0.059,-1.168 -0.059,-1.168 l 0.009,-0.048 c -21.2,-7.193 -28.225,-27.458 -33.441,-51.338 -25.475,30.894 -96.216,44.682 -133.33,51.172 l 0.046,0.214 -0.062,1.168 c -0.535,10.255 -4.557,85.379 -7.823,89.051 -27.591,-71.387 -27.591,-113.867 -5.693,-154.16 0,0 14.571,-67.01 96.482,-67.01 81.911,0 77.795,51.499 97.389,67.01"
           id="path187"
           inkscape:connector-curvature="0"
           style="fill:#865b37" />
        <path
           d="m 553.43,162.994 c 21.897,40.293 21.897,82.773 -5.696,154.16 -3.262,-3.672 -7.288,-78.796 -7.822,-89.051 -0.039,-0.751 -0.059,-1.168 -0.059,-1.168 l 0.009,-0.048 c -21.2,-7.193 -28.225,-27.458 -33.441,-51.338 -25.475,30.894 -96.216,44.682 -133.33,51.172 l 0.046,0.214 -0.062,1.168 c -0.535,10.255 -4.557,85.379 -7.823,89.051 -27.591,-71.387 -27.591,-113.867 -5.693,-154.16"
           id="path189"
           inkscape:connector-curvature="0"
           style="fill-opacity:0;stroke:#1a1919;stroke-width:7.09399986;stroke-linecap:round;stroke-linejoin:round" />
        <path
           d="m 530.374,124.835 c 0.476,1.838 0.399,3.862 0.002,5.813 -0.418,1.952 -1.145,3.849 -2.071,5.624 -1.846,3.573 -4.391,6.702 -7.171,9.516 -5.622,5.602 -12.299,9.904 -19.304,13.346 -14.101,6.794 -29.687,10.074 -45.366,10.1 -15.551,-0.003 -31.235,-3.285 -45.31,-10.08 -7.008,-3.439 -13.687,-7.743 -19.308,-13.35 -2.779,-2.817 -5.325,-5.948 -7.169,-9.524 -0.925,-1.778 -1.652,-3.676 -2.068,-5.629 -0.395,-1.953 -0.47,-3.978 0.009,-5.816 0.968,3.667 3.25,6.375 5.757,8.685 2.554,2.289 5.427,4.186 8.434,5.839 6.021,3.304 12.502,5.753 19.098,7.679 13.23,3.842 26.906,5.613 40.621,5.648 13.587,-0.013 27.361,-1.785 40.565,-5.627 6.599,-1.924 13.082,-4.375 19.103,-7.684 3.007,-1.656 5.879,-3.555 8.432,-5.847 2.506,-2.313 4.785,-5.026 5.746,-8.693"
           id="path191"
           inkscape:connector-curvature="0"
           style="fill:#956949" />
        <g
           id="text4323"
           style="font-style:normal;font-weight:normal;font-size:76.32649231px;line-height:125%;font-family:sans-serif;letter-spacing:0px;word-spacing:0px;fill:#df5693;fill-opacity:0.78039216;stroke:none;stroke-width:1px;stroke-linecap:butt;stroke-linejoin:miter;stroke-opacity:1"
           transform="scale(0.94927384,1.0534368)">
          <path
             id="path4828"
             style="font-style:normal;font-variant:normal;font-weight:600;font-stretch:normal;font-family:'.Aqua Kana';-inkscape-font-specification:'.Aqua Kana Semi-Bold'"
             d="m 257.98728,920.94553 q 0,4.04531 0.0763,6.48775 0.15266,2.36613 0.53429,4.50327 l -11.37265,0 q 0.38163,-1.98449 0.45796,-4.50327 0.15265,-2.51877 0.15265,-6.33509 l 0,-40.22407 q 0,-1.60285 -0.0763,-2.82408 0,-1.22122 -0.0763,-2.36612 -0.0763,-1.14489 -0.22898,-2.28979 -0.0763,-1.1449 -0.22898,-2.44245 1.1449,0.0763 2.13714,0.15265 1.06857,0 2.13715,0.0763 1.06857,0 2.36612,0 1.29755,0 3.05306,0 l 21.37141,0 q 1.83184,0 3.20572,0 1.4502,-0.0763 2.5951,-0.0763 1.22122,-0.0763 2.28979,-0.15265 1.1449,-0.15265 2.36612,-0.30531 l 0,10.30408 q -2.06081,-0.30531 -4.42693,-0.38163 -2.36612,-0.15265 -6.0298,-0.15265 l -20.30284,0 0,16.18121 16.33387,0 q 3.58734,0 5.87714,-0.0763 2.28979,-0.15266 4.50326,-0.45796 l 0,10.15142 q -2.13714,-0.30531 -4.50326,-0.38163 -2.36612,-0.15266 -5.87714,-0.15266 l -16.33387,0 0,15.2653 z" />
          <path
             id="path4830"
             style="font-style:normal;font-variant:normal;font-weight:600;font-stretch:normal;font-family:'.Aqua Kana';-inkscape-font-specification:'.Aqua Kana Semi-Bold'"
             d="m 333.79976,931.93655 q -0.38163,-1.90816 -0.99225,-4.12163 -0.53428,-2.21347 -1.14489,-3.89265 l -3.05306,-8.31959 -24.42448,0 -3.05306,8.31959 q -0.53429,1.37387 -0.91592,2.36612 -0.3053,0.99224 -0.53428,1.83183 -0.22898,0.83959 -0.45796,1.75551 -0.15266,0.83959 -0.38164,2.06082 l -12.51754,0 q 0.83959,-1.52653 1.90816,-3.89265 1.06857,-2.44245 2.13714,-5.11388 l 16.79183,-44.04038 q 1.06857,-2.90041 1.60286,-4.50327 0.53428,-1.67918 0.83959,-3.20571 l 13.28081,0 q 0.15265,0.68694 0.30531,1.37388 0.15265,0.61061 0.45795,1.4502 0.30531,0.83959 0.68694,1.98449 0.45796,1.1449 1.1449,2.90041 l 16.94448,44.04038 q 1.4502,3.66367 2.21347,5.64816 0.83959,1.90816 1.67918,3.35837 l -12.51754,0 z m -16.10489,-47.70406 q -0.22898,-0.61061 -0.53429,-1.4502 -0.22898,-0.91592 -0.83959,-2.82408 -0.45796,1.37387 -0.76326,2.13714 -0.22898,0.68694 -0.38164,1.1449 -0.0763,0.38163 -0.15265,0.61061 -0.0763,0.15265 -0.15265,0.38163 l -7.93796,22.59264 18.92897,0 -8.16693,-22.59264 z" />
          <path
             id="path4832"
             style="font-style:normal;font-variant:normal;font-weight:600;font-stretch:normal;font-family:'.Aqua Kana';-inkscape-font-specification:'.Aqua Kana Semi-Bold'"
             d="m 361.62792,913.00758 q 0.22898,2.5951 0.61061,4.0453 0.45796,1.37388 1.52653,2.67143 1.67918,2.21347 4.50326,3.35836 2.90041,1.1449 6.64041,1.1449 5.72448,0 8.9302,-2.36612 3.28203,-2.44245 3.28203,-6.79306 0,-2.36612 -1.06857,-4.19795 -0.99224,-1.83184 -2.74775,-2.82408 -0.83959,-0.45796 -1.60286,-0.76327 -0.68693,-0.30531 -1.98448,-0.61061 -1.22123,-0.38163 -3.51102,-0.91592 -2.21347,-0.53428 -6.18245,-1.4502 -4.27428,-0.99225 -6.86938,-1.98449 -2.5951,-1.06857 -4.65592,-2.67143 -5.87714,-4.57959 -5.87714,-12.36489 0,-3.96898 1.52653,-7.17469 1.52653,-3.28204 4.35061,-5.57183 2.90041,-2.2898 6.86938,-3.51102 3.96898,-1.22123 8.9302,-1.22123 6.56408,0 11.37265,1.98449 4.80857,1.90816 7.63265,5.72449 1.4502,1.90816 2.21347,3.89265 0.83959,1.90816 1.52653,4.96122 l -10.91469,1.29755 q -0.38163,-1.98449 -0.83959,-3.12938 -0.45796,-1.1449 -1.4502,-2.2898 -3.05306,-3.66367 -9.54082,-3.66367 -5.03754,0 -8.0906,2.28979 -3.05306,2.2898 -3.05306,6.0298 0,4.65591 5.1902,6.94571 0.61061,0.22898 1.1449,0.45796 0.61061,0.15265 1.67918,0.45796 1.06857,0.3053 2.9004,0.76326 1.83184,0.38163 5.03755,1.06857 4.57959,0.99225 7.48,2.13714 2.90041,1.06857 4.96122,2.51878 3.28204,2.44245 4.80857,5.64816 1.52653,3.12938 1.52653,7.47999 0,8.16694 -4.80857,12.97551 -6.02979,5.80081 -18.24203,5.80081 -4.73224,0 -9.00653,-1.06857 -4.27428,-1.06857 -7.02203,-2.90041 -4.50327,-3.05306 -6.71674,-8.70122 -0.53428,-1.29755 -0.83959,-2.5951 -0.22898,-1.37387 -0.61061,-3.73999 l 10.99102,-1.1449 z" />
          <path
             id="path4834"
             style="font-style:normal;font-variant:normal;font-weight:600;font-stretch:normal;font-family:'.Aqua Kana';-inkscape-font-specification:'.Aqua Kana Semi-Bold'"
             d="m 433.97351,922.0141 q 0,3.12939 0.0763,5.34286 0.15265,2.21347 0.53428,4.57959 l -11.5253,0 q 0.38164,-2.44245 0.45796,-4.57959 0.15266,-2.21347 0.15266,-5.34286 l 0,-41.67426 -10.30408,0 q -3.43469,0 -5.95347,0.15265 -2.51877,0.0763 -4.50326,0.38163 l 0,-10.22775 q 2.06082,0.30531 4.57959,0.45796 2.51877,0.0763 5.80081,0.0763 l 30.22529,0 q 2.06082,0 3.66368,0 1.60285,-0.0763 2.9004,-0.0763 1.29755,-0.0763 2.44245,-0.15265 1.1449,-0.15265 2.21347,-0.30531 l 0,10.22775 q -2.13714,-0.3053 -4.65592,-0.38163 -2.44245,-0.15265 -6.56408,-0.15265 l -9.54081,0 0,41.67426 z" />
          <path
             id="path4836"
             style="font-style:normal;font-variant:normal;font-weight:600;font-stretch:normal;font-family:'.Aqua Kana';-inkscape-font-specification:'.Aqua Kana Semi-Bold'"
             d="m 497.55109,920.94553 q 0,4.04531 0.0763,6.48775 0.15265,2.36613 0.53428,4.50327 l -11.37265,0 q 0.38164,-1.98449 0.45796,-4.50327 0.15266,-2.51877 0.15266,-6.33509 l 0,-40.22407 q 0,-1.60285 -0.0763,-2.82408 0,-1.22122 -0.0763,-2.36612 -0.0763,-1.14489 -0.22898,-2.28979 -0.0763,-1.1449 -0.22898,-2.44245 1.1449,0.0763 2.13715,0.15265 1.06857,0 2.13714,0.0763 1.06857,0 2.36612,0 1.29755,0 3.05306,0 l 21.37142,0 q 1.83183,0 3.20571,0 1.4502,-0.0763 2.5951,-0.0763 1.22122,-0.0763 2.28979,-0.15265 1.1449,-0.15265 2.36613,-0.30531 l 0,10.30408 q -2.06082,-0.30531 -4.42694,-0.38163 -2.36612,-0.15265 -6.02979,-0.15265 l -20.30285,0 0,16.18121 16.33387,0 q 3.58734,0 5.87714,-0.0763 2.28979,-0.15266 4.50326,-0.45796 l 0,10.15142 q -2.13714,-0.30531 -4.50326,-0.38163 -2.36612,-0.15266 -5.87714,-0.15266 l -16.33387,0 0,15.2653 z" />
          <path
             id="path4838"
             style="font-style:normal;font-variant:normal;font-weight:600;font-stretch:normal;font-family:'.Aqua Kana';-inkscape-font-specification:'.Aqua Kana Semi-Bold'"
             d="m 562.24377,869.95944 q 12.44121,0 20.07386,7.63265 4.19796,4.19795 6.3351,10.30407 2.21347,6.02979 2.21347,13.50979 0,7.25102 -2.06081,13.12816 -1.98449,5.87714 -5.72449,10.07509 -3.74,4.12164 -9.00653,6.41143 -5.26653,2.21347 -11.75428,2.21347 -6.48775,0 -11.75428,-2.21347 -5.26653,-2.28979 -9.00652,-6.41143 -3.66367,-4.19795 -5.72449,-10.07509 -1.98449,-5.87714 -1.98449,-13.12816 0,-7.40367 2.21347,-13.50979 2.21347,-6.18244 6.48775,-10.30407 3.96898,-3.89266 8.77755,-5.72449 4.80857,-1.90816 10.91469,-1.90816 z m 0.22898,54.19181 q 4.12163,0 7.40367,-1.52653 3.28203,-1.60286 5.57183,-4.57959 2.28979,-2.97674 3.51102,-7.17469 1.22122,-4.19796 1.22122,-9.46449 0,-5.80081 -1.60285,-10.30408 -1.52653,-4.57959 -4.42694,-7.47999 -4.80857,-4.65592 -11.75428,-4.65592 -4.12163,0 -7.48,1.60286 -3.28204,1.52653 -5.64816,4.50326 -2.28979,2.90041 -3.58734,7.09837 -1.22123,4.12163 -1.22123,9.31183 0,5.72448 1.60286,10.3804 1.60286,4.65592 4.57959,7.63265 4.80857,4.65592 11.83061,4.65592 z" />
          <path
             id="path4840"
             style="font-style:normal;font-variant:normal;font-weight:600;font-stretch:normal;font-family:'.Aqua Kana';-inkscape-font-specification:'.Aqua Kana Semi-Bold'"
             d="m 626.34609,869.95944 q 12.44122,0 20.07387,7.63265 4.19796,4.19795 6.3351,10.30407 2.21347,6.02979 2.21347,13.50979 0,7.25102 -2.06082,13.12816 -1.98449,5.87714 -5.72449,10.07509 -3.73999,4.12164 -9.00652,6.41143 -5.26653,2.21347 -11.75428,2.21347 -6.48775,0 -11.75428,-2.21347 -5.26653,-2.28979 -9.00653,-6.41143 -3.66367,-4.19795 -5.72448,-10.07509 -1.98449,-5.87714 -1.98449,-13.12816 0,-7.40367 2.21346,-13.50979 2.21347,-6.18244 6.48776,-10.30407 3.96897,-3.89266 8.77754,-5.72449 4.80857,-1.90816 10.91469,-1.90816 z m 0.22898,54.19181 q 4.12163,0 7.40367,-1.52653 3.28204,-1.60286 5.57183,-4.57959 2.2898,-2.97674 3.51102,-7.17469 1.22123,-4.19796 1.22123,-9.46449 0,-5.80081 -1.60286,-10.30408 -1.52653,-4.57959 -4.42694,-7.47999 -4.80856,-4.65592 -11.75428,-4.65592 -4.12163,0 -7.47999,1.60286 -3.28204,1.52653 -5.64816,4.50326 -2.2898,2.90041 -3.58735,7.09837 -1.22122,4.12163 -1.22122,9.31183 0,5.72448 1.60286,10.3804 1.60285,4.65592 4.57958,7.63265 4.80857,4.65592 11.83061,4.65592 z" />
          <path
             id="path4842"
             style="font-style:normal;font-variant:normal;font-weight:600;font-stretch:normal;font-family:'.Aqua Kana';-inkscape-font-specification:'.Aqua Kana Semi-Bold'"
             d="m 664.65006,880.87412 q 0,-3.20571 -0.15265,-5.26652 -0.0763,-2.13715 -0.45796,-4.65592 1.1449,0.0763 2.13714,0.15265 0.99225,0 2.06082,0.0763 1.06857,0 2.36612,0 1.29755,0 3.12939,0 l 13.81509,0 q 7.17469,0 12.05959,1.60286 4.88489,1.52653 8.54856,5.11387 4.19796,3.96898 6.3351,9.84612 2.13714,5.80081 2.13714,13.28081 0,15.72326 -9.00652,24.27182 -3.66367,3.4347 -8.47224,5.03755 -4.73225,1.60286 -11.5253,1.60286 l -13.89142,0 q -1.75551,0 -3.05306,0 -1.29755,0 -2.36613,0 -1.06857,0.0763 -2.13714,0.0763 -0.99224,0.0763 -2.13714,0.15266 0.15265,-1.1449 0.22898,-2.21347 0.15265,-1.1449 0.22898,-2.2898 0.0763,-1.14489 0.0763,-2.44244 0.0763,-1.37388 0.0763,-3.12939 l 0,-41.21631 z m 22.28734,42.0559 q 4.73224,0 7.86163,-1.1449 3.20571,-1.14489 5.64816,-3.73999 2.74775,-2.90041 4.12163,-7.17469 1.4502,-4.35061 1.4502,-9.7698 0,-10.83836 -5.26653,-16.33386 -2.36612,-2.44245 -5.57183,-3.51102 -3.12939,-1.06857 -8.16694,-1.06857 l -12.21223,0 0,42.74283 12.13591,0 z" />
        </g>
        <rect
           style="opacity:1;fill:#ecde21;fill-opacity:1;stroke:#000000;stroke-width:5.79069138;stroke-linecap:round;stroke-linejoin:round;stroke-miterlimit:4;stroke-dasharray:none;stroke-opacity:1"
           id="rect4330"
           width="55.580616"
           height="26.863157"
           x="487.52856"
           y="421.13049" />
        <path
           style="fill:#de4d50"
           inkscape:connector-curvature="0"
           d="m 380.2265,73.462574 -13.62393,46.499796 c 0,0 117.7792,24.30553 185.87382,5.55421 l -6.4112,-52.054006 -165.83869,0"
           id="path4603" />
        <g
           transform="matrix(1.0019072,0,0,0.86811657,147.04261,67.070627)"
           clip-path="url(#Clip_2-7)"
           id="g4605">
          <path
             style="fill:#e08741;fill-opacity:1"
             inkscape:connector-curvature="0"
             d="m 239.94,7.363 16.791,0 0,71.163 -16.791,0 z"
             id="path4607" />
          <path
             style="fill:#e08741;fill-opacity:1"
             inkscape:connector-curvature="0"
             d="m 279.927,7.363 16.791,0 0,71.163 -16.791,0 z"
             id="path4609" />
          <path
             style="fill:#e08741;fill-opacity:1"
             inkscape:connector-curvature="0"
             d="m 319.907,7.363 16.798,0 0,71.163 -16.798,0 z"
             id="path4611" />
          <path
             style="fill:#e08741;fill-opacity:1"
             inkscape:connector-curvature="0"
             d="m 359.894,7.363 16.79,0 0,71.163 -16.79,0 z"
             id="path4613" />
        </g>
        <path
           style="fill-opacity:0;stroke:#000000;stroke-width:6.52831078;stroke-linecap:round;stroke-linejoin:round;stroke-miterlimit:4;stroke-dasharray:none;stroke-opacity:1"
           inkscape:connector-curvature="0"
           d="m 380.2265,73.462574 -13.62393,46.499796 c 0,0 117.7792,24.30553 185.87382,5.55421 l -6.4112,-52.054006 -165.83869,0 z"
           id="path4615" />
        <path
           sodipodi:nodetypes="ccccc"
           style="fill:#d3b282;fill-opacity:1;stroke:#000000;stroke-width:7;stroke-linecap:round;stroke-linejoin:round;stroke-miterlimit:4;stroke-dasharray:none;stroke-opacity:1"
           inkscape:connector-curvature="0"
           d="m 471.16849,626.91306 c -2.398,0 -13.56987,61.0332 -13.56987,61.0332 l 337.20271,-0.5318 -16.69975,-64.49423 z"
           id="path4581" />
        <path
           style="fill:#ad8466;stroke:#000000;stroke-width:7;stroke-miterlimit:4;stroke-dasharray:none;stroke-opacity:1"
           inkscape:connector-curvature="0"
           d="m 632.20244,601.13082 c 0,13.459 -27.562,15.99 -61.572,15.99 -33.996,0 -61.566,-2.531 -61.566,-15.99 0,-13.471 27.57,-32.786 61.566,-32.786 34.01,0 61.572,19.315 61.572,32.786"
           id="path4617" />
        <path
           style="fill:#ad8466;stroke:#000000;stroke-width:7;stroke-miterlimit:4;stroke-dasharray:none;stroke-opacity:1"
           inkscape:connector-curvature="0"
           d="m 511.25844,639.31082 c 0,0 -11.397,7.201 -4.795,13.795 6.595,6.595 16.193,13.796 63.569,13.796 47.384,0 67.774,-13.198 67.17,-19.787 -0.598,-6.601 -4.198,-7.804 -4.198,-7.804"
           id="path4619" />
        <path
           style="fill:#ecb343;stroke:#000000;stroke-width:7;stroke-miterlimit:4;stroke-dasharray:none;stroke-opacity:1"
           inkscape:connector-curvature="0"
           d="m 634.20644,627.91982 c 0,0 0.598,3.601 -2.404,9 -2.996,5.393 -32.386,9.592 -59.372,10.787 -26.986,1.195 -51.574,-4.796 -56.967,-6.596 -5.407,-1.8 -9,-18.795 -9,-18.795 l 127.743,5.604"
           id="path4621" />
        <path
           style="fill:#63b359;stroke:#000000;stroke-width:7;stroke-miterlimit:4;stroke-dasharray:none;stroke-opacity:1"
           inkscape:connector-curvature="0"
           d="m 633.60244,609.12582 c 0,0 7.798,7.798 7.798,13.802 0,5.991 -17.389,1.787 -17.389,1.787 0,0 -6.004,7.199 -10.8,6.595 -4.795,-0.598 -17.993,-2.989 -17.993,-2.989 0,0 -13.19,6.589 -20.988,7.193 -7.791,0.591 -14.393,-5.997 -14.393,-5.997 0,0 -13.198,3.606 -23.393,3.606 -10.195,0 -13.788,-7.805 -13.788,-7.805 0,0 -9,1.801 -16.193,-3.002 -7.2,-4.795 5.4,-13.19 5.4,-13.19 0,0 39.579,7.403 55.772,9.19 16.192,1.807 65.967,-9.19 65.967,-9.19"
           id="path4623" />
        <path
           style="fill-opacity:0;stroke:#000000;stroke-width:7;stroke-linecap:round;stroke-linejoin:round;stroke-miterlimit:4;stroke-dasharray:none;stroke-opacity:1"
           inkscape:connector-curvature="0"
           d="m 632.20244,601.13082 c 0,13.459 -27.562,15.99 -61.572,15.99 -33.996,0 -61.566,-2.531 -61.566,-15.99 0,-13.471 27.57,-32.786 61.566,-32.786 34.01,0 61.572,19.315 61.572,32.786 z m -120.339,7.995 c 0,0 -12.6,8.395 -5.4,13.19 7.193,4.803 16.193,3.002 16.193,3.002 0,0 3.593,7.805 13.788,7.805 10.195,0 23.393,-3.606 23.393,-3.606 0,0 6.602,6.588 14.393,5.997 7.798,-0.604 20.988,-7.193 20.988,-7.193 0,0 13.198,2.391 17.993,2.989 4.796,0.604 10.8,-6.595 10.8,-6.595 0,0 17.389,4.204 17.389,-1.787 0,-6.004 -7.798,-13.802 -7.798,-13.802 m -127.139,13.19 c 0,0 3.593,16.995 9,18.795 5.393,1.8 29.981,7.791 56.967,6.596 26.986,-1.195 56.376,-5.394 59.372,-10.787 3.002,-5.399 2.404,-9 2.404,-9 m -122.948,11.391 c 0,0 -11.397,7.201 -4.795,13.795 6.595,6.595 16.193,13.796 63.569,13.796 47.384,0 67.774,-13.198 67.17,-19.787 -0.598,-6.601 -4.198,-7.804 -4.198,-7.804"
           id="path4625" />
        <path
           style="fill:#cb9c7d;stroke:#000000;stroke-width:7;stroke-miterlimit:4;stroke-dasharray:none;stroke-opacity:1"
           inkscape:connector-curvature="0"
           d="m 555.97044,582.44182 c 1.005,1.723 -0.612,4.536 -3.607,6.293 -2.996,1.765 -6.244,1.8 -7.256,0.091 -1.006,-1.708 0.611,-4.527 3.613,-6.299 2.996,-1.757 6.244,-1.787 7.25,-0.085"
           id="path4627" />
        <path
           style="fill:#cb9c7d;stroke:#000000;stroke-width:7;stroke-miterlimit:4;stroke-dasharray:none;stroke-opacity:1"
           inkscape:connector-curvature="0"
           d="m 571.03844,581.14182 c 1.99,-0.05 3.684,2.707 3.789,6.187 0.106,3.481 -1.42,6.349 -3.402,6.399 -1.99,0.07 -3.685,-2.707 -3.79,-6.181 -0.106,-3.473 1.42,-6.342 3.403,-6.405"
           id="path4629" />
        <path
           style="fill:#cb9c7d;stroke:#000000;stroke-width:7;stroke-miterlimit:4;stroke-dasharray:none;stroke-opacity:1"
           inkscape:connector-curvature="0"
           d="m 585.67044,580.82482 c 1.048,-1.694 4.296,-1.582 7.249,0.267 2.953,1.828 4.5,4.67 3.452,6.371 -1.04,1.687 -4.289,1.574 -7.249,-0.268 -2.953,-1.835 -4.5,-4.682 -3.452,-6.37"
           id="path4631" />
        <path
           style="fill:#eeeee1;fill-opacity:1;stroke:#000000;stroke-width:7;stroke-miterlimit:4;stroke-dasharray:none;stroke-opacity:1"
           inkscape:connector-curvature="0"
           d="m 767.94144,519.56782 c 0,8.608 -26.494,15.589 -59.175,15.589 -32.681,0 -59.175,-6.981 -59.175,-15.589 0,-8.619 26.494,-15.594 59.175,-15.594 32.681,0 59.175,6.975 59.175,15.594"
           id="path4633" />
        <path
           style="fill:#de4d50;stroke:#000000;stroke-width:7;stroke-miterlimit:4;stroke-dasharray:none;stroke-opacity:1"
           inkscape:connector-curvature="0"
           d="m 767.94144,519.56782 -25.186,142.334 c -34.791,10.807 -70.172,-1.202 -70.172,-1.202 l -20.988,-136.132 c 0,0 26.388,13.191 52.776,12.593 26.389,-0.598 55.772,-11.194 63.57,-17.593"
           id="path4635" />
        <path
           style="fill-opacity:0;stroke:#000000;stroke-width:7;stroke-linecap:round;stroke-linejoin:round;stroke-miterlimit:4;stroke-dasharray:none;stroke-opacity:1"
           inkscape:connector-curvature="0"
           d="m 767.94144,519.56782 c 0,8.608 -26.494,15.589 -59.175,15.589 -32.681,0 -59.175,-6.981 -59.175,-15.589 0,-8.619 26.494,-15.594 59.175,-15.594 32.681,0 59.175,6.975 59.175,15.594 z m 0,0 -25.186,142.334 c -34.791,10.807 -70.172,-1.202 -70.172,-1.202 l -20.988,-136.132"
           id="path4637" />
        <path
           style="fill:#fffffe;stroke:#000000;stroke-width:7;stroke-miterlimit:4;stroke-dasharray:none;stroke-opacity:1"
           inkscape:connector-curvature="0"
           d="m 715.16444,515.57482 36.584,-73.764 46.181,16.796 -5.998,10.788 -33.588,-13.199 -31.184,60.575 -11.995,-1.196"
           id="path4639" />
        <path
           style="fill:#e1e6ee;fill-opacity:1;stroke:#000000;stroke-width:7;stroke-linecap:round;stroke-linejoin:round;stroke-miterlimit:4;stroke-dasharray:none;stroke-opacity:1"
           inkscape:connector-curvature="0"
           d="m 715.16444,515.57482 36.584,-73.764 46.181,16.796 -5.998,10.788 -33.588,-13.199 -31.184,60.575 -11.995,-1.196 z"
           id="path4641" />
      </g>
    </g>
  </g>
</svg>
